<svg xmlns="http://www.w3.org/2000/svg" viewBox="0 0 32 32" width="32" height="32">
  <rect width="32" height="32" rx="9" fill="#1b8a48" />
  <circle cx="16" cy="16" r="11.5" fill="#ffffff" />
  <g fill="#0b3a2a">
    <polygon points="0,-1 0.951,-0.309 0.588,0.809 -0.588,0.809 -0.951,-0.309" transform="translate(16 16) scale(3.7)" />
    <polygon points="0,-1 0.951,-0.309 0.588,0.809 -0.588,0.809 -0.951,-0.309" transform="translate(16 16) rotate(36) translate(0 -8.1) scale(2) rotate(180)" />
    <polygon points="0,-1 0.951,-0.309 0.588,0.809 -0.588,0.809 -0.951,-0.309" transform="translate(16 16) rotate(108) translate(0 -8.1) scale(2) rotate(180)" />
    <polygon points="0,-1 0.951,-0.309 0.588,0.809 -0.588,0.809 -0.951,-0.309" transform="translate(16 16) rotate(180) translate(0 -8.1) scale(2) rotate(180)" />
    <polygon points="0,-1 0.951,-0.309 0.588,0.809 -0.588,0.809 -0.951,-0.309" transform="translate(16 16) rotate(252) translate(0 -8.1) scale(2) rotate(180)" />
    <polygon points="0,-1 0.951,-0.309 0.588,0.809 -0.588,0.809 -0.951,-0.309" transform="translate(16 16) rotate(324) translate(0 -8.1) scale(2) rotate(180)" />
  </g>
</svg>
